<mxfile host="app.diagrams.net" modified="2022-05-30T04:13:50.638Z" agent="5.0 (X11; Linux x86_64) AppleWebKit/537.36 (KHTML, like Gecko) Chrome/102.0.5005.61 Safari/537.36" etag="8uE95ZDM3Zdbg1ZxE9QM" version="17.4.5" type="github">
  <diagram id="kHL0ZJW6jmxa_d2j9imH" name="Page-1">
    <mxGraphModel dx="1129" dy="644" grid="1" gridSize="10" guides="1" tooltips="1" connect="1" arrows="1" fold="1" page="1" pageScale="1" pageWidth="850" pageHeight="1100" math="0" shadow="0">
      <root>
        <mxCell id="0" />
        <mxCell id="1" parent="0" />
        <mxCell id="O-k6CLtJrN7HofHWBtSs-1" value="h2h" style="rounded=0;whiteSpace=wrap;html=1;" parent="1" vertex="1">
          <mxGeometry x="370" y="250" width="110" height="290" as="geometry" />
        </mxCell>
        <mxCell id="O-k6CLtJrN7HofHWBtSs-2" value="gateway-async" style="rounded=0;whiteSpace=wrap;html=1;fontSize=10;" parent="1" vertex="1">
          <mxGeometry x="560" y="270" width="70" height="30" as="geometry" />
        </mxCell>
        <mxCell id="O-k6CLtJrN7HofHWBtSs-3" value="gateway-sync" style="rounded=0;whiteSpace=wrap;html=1;fontSize=10;" parent="1" vertex="1">
          <mxGeometry x="560" y="330" width="70" height="30" as="geometry" />
        </mxCell>
        <mxCell id="O-k6CLtJrN7HofHWBtSs-11" value="" style="endArrow=classic;startArrow=none;html=1;rounded=0;fontSize=10;exitX=1;exitY=0.5;exitDx=0;exitDy=0;entryX=0;entryY=0.5;entryDx=0;entryDy=0;startFill=0;" parent="1" target="O-k6CLtJrN7HofHWBtSs-3" edge="1">
          <mxGeometry width="50" height="50" relative="1" as="geometry">
            <mxPoint x="480" y="345" as="sourcePoint" />
            <mxPoint x="600" y="320" as="targetPoint" />
          </mxGeometry>
        </mxCell>
        <mxCell id="O-k6CLtJrN7HofHWBtSs-15" value="kafka" style="strokeWidth=2;html=1;shape=mxgraph.flowchart.direct_data;whiteSpace=wrap;fontSize=10;" parent="1" vertex="1">
          <mxGeometry x="270" y="180" width="70" height="30" as="geometry" />
        </mxCell>
        <mxCell id="O-k6CLtJrN7HofHWBtSs-17" value="client" style="rounded=0;whiteSpace=wrap;html=1;fontSize=10;" parent="1" vertex="1">
          <mxGeometry x="80" y="340" width="60" height="110" as="geometry" />
        </mxCell>
        <mxCell id="O-k6CLtJrN7HofHWBtSs-21" value="RT" style="edgeStyle=elbowEdgeStyle;elbow=horizontal;endArrow=classic;html=1;rounded=0;fontSize=10;startArrow=classic;startFill=1;" parent="1" edge="1">
          <mxGeometry width="50" height="50" relative="1" as="geometry">
            <mxPoint x="110" y="340" as="sourcePoint" />
            <mxPoint x="370" y="275" as="targetPoint" />
            <Array as="points">
              <mxPoint x="110" y="340" />
              <mxPoint x="110" y="280" />
            </Array>
          </mxGeometry>
        </mxCell>
        <mxCell id="O-k6CLtJrN7HofHWBtSs-25" value="NRT" style="edgeStyle=elbowEdgeStyle;elbow=horizontal;endArrow=classic;html=1;rounded=0;fontSize=10;exitX=0.75;exitY=0;exitDx=0;exitDy=0;" parent="1" source="O-k6CLtJrN7HofHWBtSs-17" edge="1">
          <mxGeometry width="50" height="50" relative="1" as="geometry">
            <mxPoint x="125.00000000000011" y="326" as="sourcePoint" />
            <mxPoint x="370" y="301" as="targetPoint" />
            <Array as="points">
              <mxPoint x="125" y="296" />
            </Array>
          </mxGeometry>
        </mxCell>
        <mxCell id="O-k6CLtJrN7HofHWBtSs-27" value="BATCH" style="edgeStyle=elbowEdgeStyle;elbow=horizontal;endArrow=classic;html=1;rounded=0;fontSize=10;exitX=1.017;exitY=0.11;exitDx=0;exitDy=0;exitPerimeter=0;" parent="1" source="O-k6CLtJrN7HofHWBtSs-17" edge="1">
          <mxGeometry width="50" height="50" relative="1" as="geometry">
            <mxPoint x="139.2199999999999" y="319.07000000000005" as="sourcePoint" />
            <mxPoint x="370" y="319" as="targetPoint" />
            <Array as="points">
              <mxPoint x="160" y="320" />
              <mxPoint x="160" y="304" />
              <mxPoint x="210" y="324" />
            </Array>
          </mxGeometry>
        </mxCell>
        <mxCell id="O-k6CLtJrN7HofHWBtSs-29" value="ACH" style="edgeStyle=elbowEdgeStyle;elbow=horizontal;endArrow=classic;html=1;rounded=0;fontSize=10;exitX=1;exitY=0.25;exitDx=0;exitDy=0;" parent="1" source="O-k6CLtJrN7HofHWBtSs-17" target="O-k6CLtJrN7HofHWBtSs-1" edge="1">
          <mxGeometry width="50" height="50" relative="1" as="geometry">
            <mxPoint x="270" y="395" as="sourcePoint" />
            <mxPoint x="370" y="395" as="targetPoint" />
            <Array as="points">
              <mxPoint x="190" y="340" />
              <mxPoint x="260" y="340" />
              <mxPoint x="210" y="370" />
            </Array>
          </mxGeometry>
        </mxCell>
        <mxCell id="O-k6CLtJrN7HofHWBtSs-33" value="HB" style="edgeStyle=elbowEdgeStyle;elbow=horizontal;endArrow=classic;html=1;rounded=0;fontSize=10;exitX=1;exitY=0.5;exitDx=0;exitDy=0;entryX=0;entryY=0.379;entryDx=0;entryDy=0;entryPerimeter=0;" parent="1" source="O-k6CLtJrN7HofHWBtSs-17" target="O-k6CLtJrN7HofHWBtSs-1" edge="1">
          <mxGeometry width="50" height="50" relative="1" as="geometry">
            <mxPoint x="270" y="435" as="sourcePoint" />
            <mxPoint x="370" y="435" as="targetPoint" />
            <Array as="points">
              <mxPoint x="220" y="360" />
              <mxPoint x="200" y="410" />
            </Array>
          </mxGeometry>
        </mxCell>
        <mxCell id="O-k6CLtJrN7HofHWBtSs-35" value="TCC" style="edgeStyle=elbowEdgeStyle;elbow=horizontal;endArrow=classic;html=1;rounded=0;fontSize=10;exitX=1;exitY=0.75;exitDx=0;exitDy=0;entryX=-0.009;entryY=0.473;entryDx=0;entryDy=0;entryPerimeter=0;" parent="1" source="O-k6CLtJrN7HofHWBtSs-17" target="O-k6CLtJrN7HofHWBtSs-1" edge="1">
          <mxGeometry x="0.3265" width="50" height="50" relative="1" as="geometry">
            <mxPoint x="120" y="460" as="sourcePoint" />
            <mxPoint x="370" y="475" as="targetPoint" />
            <Array as="points">
              <mxPoint x="230" y="410" />
            </Array>
            <mxPoint as="offset" />
          </mxGeometry>
        </mxCell>
        <mxCell id="O-k6CLtJrN7HofHWBtSs-37" value="WT" style="edgeStyle=elbowEdgeStyle;elbow=horizontal;endArrow=classic;html=1;rounded=0;fontSize=10;exitX=1;exitY=0.869;exitDx=0;exitDy=0;exitPerimeter=0;" parent="1" source="O-k6CLtJrN7HofHWBtSs-17" edge="1">
          <mxGeometry x="0.4171" width="50" height="50" relative="1" as="geometry">
            <mxPoint x="270" y="419.9999999999999" as="sourcePoint" />
            <mxPoint x="370" y="420" as="targetPoint" />
            <mxPoint as="offset" />
          </mxGeometry>
        </mxCell>
        <mxCell id="O-k6CLtJrN7HofHWBtSs-38" value="" style="curved=1;endArrow=classic;html=1;rounded=0;dashed=1;fontSize=10;exitX=0.25;exitY=0;exitDx=0;exitDy=0;entryX=1;entryY=0.5;entryDx=0;entryDy=0;entryPerimeter=0;" parent="1" source="O-k6CLtJrN7HofHWBtSs-1" target="O-k6CLtJrN7HofHWBtSs-15" edge="1">
          <mxGeometry width="50" height="50" relative="1" as="geometry">
            <mxPoint x="380" y="240" as="sourcePoint" />
            <mxPoint x="430" y="190" as="targetPoint" />
            <Array as="points">
              <mxPoint x="430" y="240" />
              <mxPoint x="380" y="190" />
            </Array>
          </mxGeometry>
        </mxCell>
        <mxCell id="O-k6CLtJrN7HofHWBtSs-39" value="" style="endArrow=none;startArrow=classic;html=1;rounded=0;fontSize=5;curved=1;entryX=0;entryY=0.5;entryDx=0;entryDy=0;exitX=1.003;exitY=0.121;exitDx=0;exitDy=0;exitPerimeter=0;endFill=0;" parent="1" source="O-k6CLtJrN7HofHWBtSs-1" target="O-k6CLtJrN7HofHWBtSs-2" edge="1">
          <mxGeometry width="50" height="50" relative="1" as="geometry">
            <mxPoint x="410" y="370" as="sourcePoint" />
            <mxPoint x="460" y="320" as="targetPoint" />
          </mxGeometry>
        </mxCell>
        <mxCell id="O-k6CLtJrN7HofHWBtSs-40" value="isocias" style="rounded=0;whiteSpace=wrap;html=1;fontSize=10;" parent="1" vertex="1">
          <mxGeometry x="560" y="410" width="70" height="120" as="geometry" />
        </mxCell>
        <mxCell id="O-k6CLtJrN7HofHWBtSs-42" value="TCB" style="rounded=0;whiteSpace=wrap;html=1;fontSize=10;strokeWidth=1;" parent="1" vertex="1">
          <mxGeometry x="690" y="250" width="70" height="120" as="geometry" />
        </mxCell>
        <mxCell id="O-k6CLtJrN7HofHWBtSs-44" value="" style="endArrow=classic;startArrow=classic;html=1;rounded=0;fontSize=10;curved=1;exitX=1.002;exitY=0.728;exitDx=0;exitDy=0;exitPerimeter=0;" parent="1" source="O-k6CLtJrN7HofHWBtSs-1" edge="1">
          <mxGeometry width="50" height="50" relative="1" as="geometry">
            <mxPoint x="481.43000000000006" y="459.81999999999994" as="sourcePoint" />
            <mxPoint x="560" y="461" as="targetPoint" />
          </mxGeometry>
        </mxCell>
        <mxCell id="O-k6CLtJrN7HofHWBtSs-45" value="CTG" style="rounded=0;whiteSpace=wrap;html=1;fontSize=10;strokeWidth=1;" parent="1" vertex="1">
          <mxGeometry x="690" y="420" width="70" height="40" as="geometry" />
        </mxCell>
        <mxCell id="O-k6CLtJrN7HofHWBtSs-46" value="BIDV" style="rounded=0;whiteSpace=wrap;html=1;fontSize=10;strokeWidth=1;" parent="1" vertex="1">
          <mxGeometry x="690" y="480" width="70" height="40" as="geometry" />
        </mxCell>
        <mxCell id="O-k6CLtJrN7HofHWBtSs-52" value="" style="endArrow=classic;startArrow=classic;html=1;rounded=0;fontSize=10;curved=1;entryX=0;entryY=0.5;entryDx=0;entryDy=0;exitX=1;exitY=0.25;exitDx=0;exitDy=0;" parent="1" source="O-k6CLtJrN7HofHWBtSs-40" target="O-k6CLtJrN7HofHWBtSs-45" edge="1">
          <mxGeometry width="50" height="50" relative="1" as="geometry">
            <mxPoint x="630" y="470" as="sourcePoint" />
            <mxPoint x="680" y="420" as="targetPoint" />
          </mxGeometry>
        </mxCell>
        <mxCell id="O-k6CLtJrN7HofHWBtSs-53" value="" style="endArrow=classic;startArrow=classic;html=1;rounded=0;fontSize=10;curved=1;entryX=0;entryY=0.5;entryDx=0;entryDy=0;exitX=1;exitY=0.75;exitDx=0;exitDy=0;" parent="1" source="O-k6CLtJrN7HofHWBtSs-40" target="O-k6CLtJrN7HofHWBtSs-46" edge="1">
          <mxGeometry width="50" height="50" relative="1" as="geometry">
            <mxPoint x="630" y="500" as="sourcePoint" />
            <mxPoint x="700" y="440" as="targetPoint" />
          </mxGeometry>
        </mxCell>
        <mxCell id="O-k6CLtJrN7HofHWBtSs-55" value="" style="endArrow=classic;startArrow=classic;html=1;rounded=0;fontSize=10;exitX=1;exitY=0.5;exitDx=0;exitDy=0;entryX=-0.006;entryY=0.295;entryDx=0;entryDy=0;entryPerimeter=0;" parent="1" source="O-k6CLtJrN7HofHWBtSs-2" target="O-k6CLtJrN7HofHWBtSs-42" edge="1">
          <mxGeometry width="50" height="50" relative="1" as="geometry">
            <mxPoint x="490" y="355" as="sourcePoint" />
            <mxPoint x="570" y="355" as="targetPoint" />
          </mxGeometry>
        </mxCell>
        <mxCell id="O-k6CLtJrN7HofHWBtSs-57" value="" style="endArrow=classic;startArrow=none;html=1;rounded=0;fontSize=10;exitX=1;exitY=0.5;exitDx=0;exitDy=0;entryX=-0.004;entryY=0.794;entryDx=0;entryDy=0;entryPerimeter=0;startFill=0;" parent="1" edge="1" target="O-k6CLtJrN7HofHWBtSs-42">
          <mxGeometry width="50" height="50" relative="1" as="geometry">
            <mxPoint x="630.28" y="345.58" as="sourcePoint" />
            <mxPoint x="690" y="344.42" as="targetPoint" />
          </mxGeometry>
        </mxCell>
        <mxCell id="O-k6CLtJrN7HofHWBtSs-60" value="" style="curved=1;endArrow=none;html=1;rounded=0;dashed=1;fontSize=10;exitX=0;exitY=0.5;exitDx=0;exitDy=0;entryX=0;entryY=0.5;entryDx=0;entryDy=0;entryPerimeter=0;startArrow=classic;startFill=1;endFill=0;" parent="1" source="O-k6CLtJrN7HofHWBtSs-17" target="O-k6CLtJrN7HofHWBtSs-15" edge="1">
          <mxGeometry width="50" height="50" relative="1" as="geometry">
            <mxPoint x="135" y="240" as="sourcePoint" />
            <mxPoint x="50" y="185" as="targetPoint" />
            <Array as="points">
              <mxPoint x="30" y="250" />
              <mxPoint x="140" y="230" />
              <mxPoint x="90" y="180" />
            </Array>
          </mxGeometry>
        </mxCell>
        <mxCell id="O-k6CLtJrN7HofHWBtSs-61" value="CTG" style="endArrow=classic;html=1;rounded=0;fontSize=10;entryX=0;entryY=0.724;entryDx=0;entryDy=0;entryPerimeter=0;exitX=0.75;exitY=1;exitDx=0;exitDy=0;edgeStyle=orthogonalEdgeStyle;" parent="1" source="O-k6CLtJrN7HofHWBtSs-17" target="O-k6CLtJrN7HofHWBtSs-1" edge="1">
          <mxGeometry width="50" height="50" relative="1" as="geometry">
            <mxPoint x="320" y="400" as="sourcePoint" />
            <mxPoint x="370" y="350" as="targetPoint" />
          </mxGeometry>
        </mxCell>
        <mxCell id="O-k6CLtJrN7HofHWBtSs-64" value="BIDV" style="endArrow=classic;html=1;rounded=0;fontSize=10;entryX=-0.01;entryY=0.826;entryDx=0;entryDy=0;entryPerimeter=0;exitX=0.5;exitY=1;exitDx=0;exitDy=0;edgeStyle=orthogonalEdgeStyle;" parent="1" source="O-k6CLtJrN7HofHWBtSs-17" target="O-k6CLtJrN7HofHWBtSs-1" edge="1">
          <mxGeometry width="50" height="50" relative="1" as="geometry">
            <mxPoint x="320" y="440" as="sourcePoint" />
            <mxPoint x="370" y="390" as="targetPoint" />
            <Array as="points">
              <mxPoint x="110" y="490" />
              <mxPoint x="220" y="490" />
            </Array>
          </mxGeometry>
        </mxCell>
        <mxCell id="rAUy-r8fFHXEAjBvW2jp-1" value="kafka" style="strokeWidth=2;html=1;shape=mxgraph.flowchart.direct_data;whiteSpace=wrap;fontSize=10;" vertex="1" parent="1">
          <mxGeometry x="500" y="570" width="70" height="30" as="geometry" />
        </mxCell>
        <mxCell id="rAUy-r8fFHXEAjBvW2jp-2" value="kafka" style="strokeWidth=2;html=1;shape=mxgraph.flowchart.direct_data;whiteSpace=wrap;fontSize=10;" vertex="1" parent="1">
          <mxGeometry x="500" y="200" width="70" height="30" as="geometry" />
        </mxCell>
        <mxCell id="rAUy-r8fFHXEAjBvW2jp-4" value="" style="endArrow=classic;html=1;rounded=0;fontSize=10;entryX=0;entryY=0.5;entryDx=0;entryDy=0;entryPerimeter=0;exitX=0.717;exitY=-0.004;exitDx=0;exitDy=0;exitPerimeter=0;edgeStyle=orthogonalEdgeStyle;curved=1;dashed=1;startArrow=classic;startFill=1;" edge="1" parent="1" source="O-k6CLtJrN7HofHWBtSs-1" target="rAUy-r8fFHXEAjBvW2jp-2">
          <mxGeometry width="50" height="50" relative="1" as="geometry">
            <mxPoint x="425" y="250" as="sourcePoint" />
            <mxPoint x="475" y="200" as="targetPoint" />
            <Array as="points">
              <mxPoint x="449" y="230" />
              <mxPoint x="440" y="230" />
              <mxPoint x="440" y="200" />
              <mxPoint x="480" y="200" />
              <mxPoint x="480" y="215" />
            </Array>
          </mxGeometry>
        </mxCell>
        <mxCell id="rAUy-r8fFHXEAjBvW2jp-5" value="" style="endArrow=classic;startArrow=classic;html=1;rounded=0;dashed=1;fontSize=10;curved=1;exitX=0.5;exitY=0;exitDx=0;exitDy=0;entryX=1;entryY=0.5;entryDx=0;entryDy=0;entryPerimeter=0;edgeStyle=orthogonalEdgeStyle;" edge="1" parent="1" source="O-k6CLtJrN7HofHWBtSs-2" target="rAUy-r8fFHXEAjBvW2jp-2">
          <mxGeometry width="50" height="50" relative="1" as="geometry">
            <mxPoint x="590" y="260" as="sourcePoint" />
            <mxPoint x="640" y="210" as="targetPoint" />
            <Array as="points">
              <mxPoint x="610" y="270" />
              <mxPoint x="610" y="215" />
            </Array>
          </mxGeometry>
        </mxCell>
        <mxCell id="rAUy-r8fFHXEAjBvW2jp-6" value="" style="endArrow=classic;html=1;rounded=0;dashed=1;fontSize=10;curved=1;exitX=1;exitY=0.5;exitDx=0;exitDy=0;exitPerimeter=0;entryX=0.5;entryY=1;entryDx=0;entryDy=0;edgeStyle=orthogonalEdgeStyle;startArrow=classic;startFill=1;" edge="1" parent="1" source="rAUy-r8fFHXEAjBvW2jp-1" target="O-k6CLtJrN7HofHWBtSs-40">
          <mxGeometry width="50" height="50" relative="1" as="geometry">
            <mxPoint x="580" y="590" as="sourcePoint" />
            <mxPoint x="630" y="540" as="targetPoint" />
          </mxGeometry>
        </mxCell>
        <mxCell id="rAUy-r8fFHXEAjBvW2jp-7" value="" style="endArrow=classic;html=1;rounded=0;dashed=1;fontSize=10;curved=1;entryX=0.75;entryY=1;entryDx=0;entryDy=0;exitX=0;exitY=0.5;exitDx=0;exitDy=0;exitPerimeter=0;edgeStyle=orthogonalEdgeStyle;endFill=1;startArrow=classic;startFill=1;" edge="1" parent="1" source="rAUy-r8fFHXEAjBvW2jp-1" target="O-k6CLtJrN7HofHWBtSs-1">
          <mxGeometry width="50" height="50" relative="1" as="geometry">
            <mxPoint x="430" y="600" as="sourcePoint" />
            <mxPoint x="480" y="550" as="targetPoint" />
          </mxGeometry>
        </mxCell>
      </root>
    </mxGraphModel>
  </diagram>
</mxfile>
